PathFileType	4	(X/Y/Z)	/mnt/data/output.trc
DataRate	CameraRate	NumFrames	NumMarkers	Units	OrigDataRate	OrigDataStartFrame	OrigNumFrames
100	100	8	17	mm	100	2975	3966
Frame#	Time	nosex	nosey	nosez	lefteyex	lefteyey	lefteyez	righteyex	righteyey	righteyez	leftearx	lefteary	leftearz	rightearx	righteary	rightearz	leftshoulderx	leftshouldery	leftshoulderz	rightshoulderx	rightshouldery	rightshoulderz	leftelbowx	leftelbowy	leftelbowz	rightelbowx	rightelbowy	rightelbowz	leftwristx	leftwristy	leftwristz	rightwristx	rightwristy	rightwristz	lefthipx	lefthipy	lefthipz	righthipx	righthipy	righthipz	leftkneex	leftkneey	leftkneez	rightkneex	rightkneey	rightkneez	leftanklex	leftankley	leftanklez	rightanklex	rightankley	rightanklez
		1	1	1	2	2	2	3	3	3	4	4	4	5	5	5	6	6	6	7	7	7	8	8	8	9	9	9	10	10	10	11	11	11	12	12	12	13	13	13	14	14	14	15	15	15	16	16	16	17	17	17
2975	29.75	-80.30233870099916	-569.2596499125654	3275.5407005965035	-50.5021530228326	-595.5500849838725	3289.4927152744426	-98.42630626469524	-595.658159899936	3289.228238931744	7.318931682174598	-587.5139253183543	3391.1417358052454	-152.76641386240297	-589.5218726491211	3395.739268120772	88.52350172121605	-405.76499524311913	3445.6139943804124	-233.2999473093253	-411.81816698479713	3444.432201638118	138.6837389486231	-129.59937057494156	3428.241163347654	-286.8898506634269	-149.9859466580308	3463.540869857658	141.60690711735296	81.43021610541872	3394.78074892788	-297.0736920562296	71.44367257960376	3398.6646484607195	25.101840845000197	18.51663723097263	3465.49486750667	-180.99437854030512	12.793382513697612	3464.2200917953905	13.131933313171189	425.9624480098213	3537.524430547858	-157.5009075799397	430.319186813532	3531.6708199760146	18.108562305364597	792.1161867061136	3546.6016722879217	-143.50460857918745	793.3587818763724	3556.604830371086
2976	29.76	-80.3378220387128	-569.1854926685577	3275.543647584777	-50.57021977971655	-595.4745138131084	3289.498216719574	-98.4614541555166	-595.582198003557	3289.22886692312	7.262551829214723	-586.1902012528368	3391.13940736968	-152.83337203569715	-589.4480482516453	3395.7353023279047	88.45299027912694	-405.6979398036978	3445.603165880316	-233.3670255856101	-411.7554806093132	3444.4272348664817	138.75257616953357	-128.2869205698118	3428.6651122598146	-286.95670986268715	-149.94015644382372	3463.538532533159	141.54730560243613	81.43815559189478	3394.831606616152	-298.17387802495153	69.76086442526848	3401.600699608917	24.734947344271045	19.97319382979225	3465.242493428687	-181.0643136939959	12.832581157280435	3464.215664741838	13.056439748493569	425.9787217630122	3537.515364952434	-157.76305968164138	429.0525508720589	3530.7975910514865	18.032511948694545	792.1106977294199	3546.59490582129	-142.40851511787054	792.0587854475216	3556.339115483021
2977	29.77	-78.29439267259673	-568.9711992653255	3273.468088207893	-50.69320693024315	-595.4784229127584	3289.645693861105	-98.61828898353482	-595.5867403895489	3289.378620945643	7.139911955262009	-586.1926394059586	3391.285684572508	-152.948282496368	-589.4527084745417	3395.883571974918	88.32292015851287	-405.7038801421235	3445.747838392655	-233.4807604565065	-411.7647668634373	3444.574639176439	138.61381434944602	-128.29848026676214	3428.807600288243	-287.07361845628566	-149.95525831534445	3463.6819544024424	141.40943233925597	81.42308642331778	3395.010813788834	-298.28727306932507	69.75905463345414	3401.787268291725	24.60122116488549	19.95702465949059	3465.382842387913	-181.1872723887207	12.813932661121816	3464.3592825330384	12.923868312508253	425.95425089124114	3537.6491265987	-157.8873319331754	429.02620503181066	3530.932969543504	17.90192968832728	792.0796235797771	3546.7211035387754	-142.33410574307032	791.7275268736528	3559.1350587871448
2978	29.78	-78.34189548528435	-568.9626183323215	3273.495328631016	-50.73382583514441	-595.4685489964263	3289.671954522111	-98.66672720859756	-595.5782308818367	3289.405543872697	7.098643914250961	-586.1831230630088	3391.3135744476303	-152.99133041969134	-589.4424858767096	3395.911318584243	88.2835426839016	-405.6927757325317	3445.776516794731	-233.52365601377969	-411.75235633210775	3444.603408782148	138.37482522372753	-127.96980797035938	3426.1014361423545	-287.11414064671135	-149.93974440777998	3463.712078793292	141.3746702546741	81.44310364179522	3395.040038976351	-298.328618664546	69.75997933758458	3401.824191784203	24.564704718528183	19.97327703712641	3465.412148686152	-181.22564104846072	12.830894728569778	3464.389430719264	12.891866095158893	425.9756992908098	3537.6798123974463	-157.92044876645116	429.04834227271385	3530.9642069762017	17.8746870325347	792.1060731525359	3546.7523297034595	-142.5594988021519	792.0521478131711	3556.497277553876
2979	29.79	-78.36848596006314	-569.0156554511593	3273.458930851321	-50.7428797158026	-595.5184099048843	3289.6325671732293	-98.69397591293428	-595.6317885785061	3289.3694823704072	7.094232659360364	-586.2325175584907	3391.270667672857	-153.0046179620256	-589.4919952238758	3395.876255530364	88.2854858561886	-405.7347457941915	3445.7316134250395	-233.54088296887875	-411.7957107869632	3444.574312077074	138.2321001202108	-129.26633028279667	3425.632552933157	-287.1338958863951	-149.97367312229915	3463.6881094684795	141.38728941735243	81.41240953359161	3395.0247094305987	-298.1326359175383	71.21321511870859	3402.656719415339	24.727535613918324	21.21828731571824	3465.888068441638	-181.48023729631555	14.046532926058372	3464.840683221788	12.892662676519626	425.9667774892389	3537.646116058337	-157.9298970138314	429.03858879662073	3530.938230376844	17.87548571804622	792.1127740856796	3546.72168991258	-142.56744934522996	792.0583866663109	3556.4729754147934
2980	29.8	-78.41305338381666	-569.0318756942402	3273.57626282761	-50.7777536650286	-595.530843414781	3289.748055569713	-98.7397035103902	-595.6475867553387	3289.4856949127475	7.057713193987108	-586.2446273944715	3391.3839842930875	-153.04139919174364	-589.5037976330428	3395.9829184202918	88.24649343683932	-405.7501193912048	3445.848272283571	-233.57889347381277	-411.8106191947798	3444.678026751368	138.3416674581228	-128.02199807299672	3426.177399943475	-287.17315762635394	-149.9937636299491	3463.790306105684	141.33752755155686	81.39643174464265	3395.092820432967	-298.7104216387074	72.51262025926718	3402.9536072075307	24.52362978269953	19.92512899029625	3465.489009780395	-181.5210196648166	14.023865034158444	3464.949246659621	12.848944238724314	425.9368698891883	3537.7600830574734	-157.97322654055233	429.008440123373	3531.045592649516	17.83049280995927	792.0767802877174	3546.834133609764	-142.41534875006252	791.7243093429373	3559.248838531148
2981	29.81	-78.38163062858445	-569.0287546659797	3273.594192406396	-50.75534423495861	-595.5294442869363	3289.7680347490937	-98.70884011539414	-595.644984005831	3289.5045666163064	7.078710710697337	-586.2438031211067	3391.4090616275653	-153.01845260505908	-589.5022356348761	3396.0090338166306	88.26774219276659	-405.7480844164502	3445.874776695445	-233.5534811705148	-411.8065227611405	3444.705407049807	138.36543602666936	-128.0165797748789	3426.2011456914347	-287.14387800875807	-149.98537082927072	3463.817947773944	141.36340750050937	81.41032543580879	3395.1258186474465	-298.6819860194957	72.50617092374083	3402.9863504211303	24.551002564750508	19.93282710334183	3465.513554213961	-181.4914508732294	14.032822512599068	3464.9744024165766	12.880650982869676	425.9500001558414	3537.784317462255	-157.93905138890133	429.02315198406274	3531.070601883588	17.867226182477022	792.0948399495253	3546.856020816054	-142.57420452906177	792.0414405776662	3556.6025286359345
2982	29.82	-78.29345931323634	-569.0690471505568	3273.570124430264	-50.69085928701259	-595.567981007425	3289.748093523908	-98.62073558197775	-595.6858945020399	3289.482257628096	7.145728302315452	-586.2820470852785	3391.39127514387	-152.95195153717336	-589.5405781733231	3395.9975380794217	88.33591993392035	-405.7833382597022	3445.8562561594126	-233.48583906967536	-411.8414359034392	3444.698358031771	136.04231380957472	-128.1041692838766	3426.3703862997936	-287.0771754112366	-150.01525434260083	3463.8119214277103	141.42800539733244	81.3904715112492	3395.09956751908	-298.61665012845606	72.47865707404928	3403.000595306578	24.619085887819598	19.906301275788824	3465.497644605186	-181.425241360536	14.005991896697564	3464.96630660474	12.943264978522286	425.9311461056171	3537.771974297096	-157.8782596648663	429.0041419543772	3531.0641235265653	17.92331560812573	792.0820691234288	3546.8454515167614	-142.51976971624214	792.0286416628535	3556.598417105917
